<svg xmlns="http://www.w3.org/2000/svg" viewBox="0 0 295.94 48"><title>kindom_logo_drk</title><path d="M92.68 44.93V4.24a3 3 0 0 1 .89-2.18 3 3 0 0 1 2.18-.89 2.93 2.93 0 0 1 2.15.89 3 3 0 0 1 .89 2.18v22.83l17.51-11.39a3 3 0 0 1 1.64-.47 3.07 3.07 0 0 1 1.2.23 2.91 2.91 0 0 1 1 .66 3.41 3.41 0 0 1 .66 1 2.86 2.86 0 0 1 .25 1.17 2.73 2.73 0 0 1-1.17 2.43l-12.27 8 12.59 14.17A3.09 3.09 0 0 1 121 45a2.85 2.85 0 0 1-.25 1.17 3.4 3.4 0 0 1-.66 1 2.89 2.89 0 0 1-1 .66 3.06 3.06 0 0 1-1.2.23 2.83 2.83 0 0 1-2-.79L102.37 32l-3.57 2.36v10.57a3 3 0 0 1-.89 2.17 2.91 2.91 0 0 1-2.15.91 2.94 2.94 0 0 1-2.18-.91 3 3 0 0 1-.9-2.17zm41.13-35.54a3.6 3.6 0 1 1-7.2 0 3.6 3.6 0 1 1 7.2 0zm-6.65 35.54V18.29a3 3 0 0 1 .89-2.18 3 3 0 0 1 4.3 0 3.07 3.07 0 0 1 .92 2.18v26.64a3.07 3.07 0 0 1-.92 2.18 3 3 0 0 1-4.3 0 3 3 0 0 1-.88-2.18zm63.94-29.72a15.87 15.87 0 0 1 10.28 3.6V4.21a3 3 0 0 1 3-3 3 3 0 0 1 2.22.79 2.91 2.91 0 0 1 .89 2.18v27.4a15.67 15.67 0 0 1-4.8 11.59 16.39 16.39 0 0 1-28-11.59A15.79 15.79 0 0 1 179.51 20a15.8 15.8 0 0 1 11.59-4.79zm10.28 16.39a9.88 9.88 0 0 0-.81-4 10.61 10.61 0 0 0-2.2-3.26 10.43 10.43 0 0 0-3.26-2.22 10.3 10.3 0 0 0-8.05 0 10.39 10.39 0 0 0-3.25 2.21 10.5 10.5 0 0 0-2.18 3.26 10.25 10.25 0 0 0 0 8 10.48 10.48 0 0 0 2.18 3.26 10.37 10.37 0 0 0 3.25 2.21 10.3 10.3 0 0 0 8.05 0 10.42 10.42 0 0 0 3.26-2.22 10.6 10.6 0 0 0 2.2-3.26 9.88 9.88 0 0 0 .81-3.97zm43.62.01a15.67 15.67 0 0 1-4.8 11.59 16.39 16.39 0 0 1-28-11.59A15.79 15.79 0 0 1 217 20a16.4 16.4 0 0 1 23.19 0 16.09 16.09 0 0 1 3.59 5.3 16.87 16.87 0 0 1 1.22 6.31zm-16.43-10.28a10 10 0 0 0-4 .82 10.39 10.39 0 0 0-3.25 2.21 10.5 10.5 0 0 0-2.18 3.26 10.25 10.25 0 0 0 0 8 10.48 10.48 0 0 0 2.18 3.26 10.37 10.37 0 0 0 3.25 2.21 10.3 10.3 0 0 0 8.05 0 10.42 10.42 0 0 0 3.26-2.22 10.6 10.6 0 0 0 2.2-3.26 10.17 10.17 0 0 0 0-7.93 10.61 10.61 0 0 0-2.2-3.26 10.43 10.43 0 0 0-3.26-2.22 9.9 9.9 0 0 0-4.05-.87zm-59.69 3.21a15.4 15.4 0 0 0-3.34-4.86 15.81 15.81 0 0 0-1.65-1.38l.09-.06a14.53 14.53 0 0 0-9.16-3 14.53 14.53 0 0 0-9.16 3l.09.06a15.81 15.81 0 0 0-1.65 1.38 15.4 15.4 0 0 0-3.34 4.86 14.62 14.62 0 0 0-1.23 6v14.39a3 3 0 0 0 .89 2.18 2.93 2.93 0 0 0 2.15.89 3 3 0 0 0 3.07-3.07V30.49a8.75 8.75 0 0 1 .76-3.49 9.36 9.36 0 0 1 4.89-4.89 8.72 8.72 0 0 1 3.5-.73h.09a8.72 8.72 0 0 1 3.5.73 9.36 9.36 0 0 1 4.88 4.89 8.75 8.75 0 0 1 .73 3.54v14.39a3 3 0 0 0 3.08 3.07 2.93 2.93 0 0 0 2.15-.89 3 3 0 0 0 .89-2.18V30.49a14.62 14.62 0 0 0-1.23-5.95zm126.02-1.32a13.36 13.36 0 0 0-2.81-4.16 13.09 13.09 0 0 0-2.16-1.73 12.22 12.22 0 0 0-4.17-1.74l-.58-.12-.73-.11a13 13 0 0 0-1.61-.11 13.28 13.28 0 0 0-5.5 1.16 12.39 12.39 0 0 0-4.48 3.47 12.39 12.39 0 0 0-4.48-3.47 13.28 13.28 0 0 0-5.5-1.16 13 13 0 0 0-1.61.11l-.73.11-.58.12a12.22 12.22 0 0 0-4.17 1.74 13.1 13.1 0 0 0-2.16 1.73 13.36 13.36 0 0 0-2.81 4.16 12.51 12.51 0 0 0-1 5v16.71a3 3 0 0 0 .89 2.18 3.06 3.06 0 0 0 4.32 0 3 3 0 0 0 .88-2.18V28.27a6.67 6.67 0 0 1 .54-2.66 7.15 7.15 0 0 1 1.48-2.21 7 7 0 0 1 2.21-1.51h.06a6.74 6.74 0 0 1 2.68-.54 6.58 6.58 0 0 1 2.68.56 7.33 7.33 0 0 1 2.21 1.49 6.84 6.84 0 0 1 1.49 2.2 6.74 6.74 0 0 1 .54 2.69v16.64a3 3 0 0 0 .89 2.18 2.93 2.93 0 0 0 2.15.89h.06a2.93 2.93 0 0 0 2.15-.89 3 3 0 0 0 .89-2.18V28.27a6.74 6.74 0 0 1 .54-2.69 6.84 6.84 0 0 1 1.49-2.2 7.33 7.33 0 0 1 2.21-1.49 6.58 6.58 0 0 1 2.68-.56 6.74 6.74 0 0 1 2.68.54h.06a7 7 0 0 1 2.21 1.51 7.15 7.15 0 0 1 1.48 2.21 6.67 6.67 0 0 1 .54 2.66v16.68a3 3 0 0 0 .88 2.18 3.06 3.06 0 0 0 4.32 0 3 3 0 0 0 .89-2.18V28.27a12.51 12.51 0 0 0-1.02-5.05z" fill="#434a54"/><path d="M16.34 31.52l-2.48 3.1a2.14 2.14 0 0 1-.61.59 1.83 1.83 0 0 1-1 .28l-.57.71a2 2 0 0 1-1.28.84c-1.39.23-2.88-1.15-2.14-2.58L15 21.94l-5.9-4.51a5.08 5.08 0 1 0-4.34 2h.33v.27L9 47h8.2z" fill="#ee3e38"/><path d="M76.9 11.57a5.08 5.08 0 1 0-8.28 5.86l-5.54 4.41 7 12.91a1.6 1.6 0 0 1-2.53 1.92l-1.05-1.2a1.46 1.46 0 0 1-1.5-.2 1.63 1.63 0 0 1-.32-.36l-2.81-3.15L60.78 47h8l3.85-27.6a5.08 5.08 0 0 0 4.27-7.83z" fill="#2e4e91"/><path d="M15.95 22.66l-.95-.72-6.75 12.52c-.74 1.43.75 2.82 2.14 2.54a2 2 0 0 0 1.28-.84l.57-.71a1.86 1.86 0 0 1-1.8-2.6zm2.52 6.2l-2.13 2.66.89 15.47h2.28l-1.04-18.13z" fill="#be1e2d"/><path d="M24.42 31.5l-.71.66a1.89 1.89 0 0 1-2.13.51 2.09 2.09 0 0 1-1.23-1.27 1.58 1.58 0 0 1 .24-1.46l9.33-12.51-4-4.1a6.14 6.14 0 1 0-5.32.76L10.44 32.88a1.86 1.86 0 0 0 1.8 2.6 1.83 1.83 0 0 0 1-.28 2.14 2.14 0 0 0 .61-.59l4.61-5.75 1 18.12h7.82L29 28.64 26.48 31a1.9 1.9 0 0 1-2.06.5z" fill="#f39935"/><path fill="#2b388f" d="M59.16 28.77l-1.25 18.22h2.87l1.03-15.24-2.65-2.98zm10.89 5.98l-7-12.91-1.3 1.06 5.55 10.27a1.54 1.54 0 0 1-.82 2.31l1.05 1.2a1.6 1.6 0 0 0 2.52-1.93z"/><path d="M67.3 33.17L61.75 22.9 57 14.06a6.11 6.11 0 0 0 2.4-10.19 6.07 6.07 0 0 0-3.22-1.69 6.14 6.14 0 0 0-4.52 11.14l-4.06 4.12 9.47 13a1.59 1.59 0 0 1-2.41 2.08l-1-.83a1.44 1.44 0 0 1-1.8-.37l-3.4-2.9L49.76 47h8.16l1.24-18.22 5.8 6.5a1.46 1.46 0 0 0 1.53.21 1.54 1.54 0 0 0 .81-2.32z" fill="#8ac459"/><path d="M57.07 30.4l-9.47-13-1.09 1.11L54.3 29.2a1.56 1.56 0 0 1-.61 2.45l1 .83a1.59 1.59 0 0 0 2.38-2.08zm-11.44-4.45L47 46.67a.3.3 0 0 1-.29.32h3l-1.27-18.6z" fill="#37b34a"/><path d="M29 28.64L27.33 47h3a.3.3 0 0 1-.29-.32l1.86-20.72zm2-10.12l-1.07-1.09-9.35 12.51a1.58 1.58 0 0 0-.24 1.46 2.09 2.09 0 0 0 1.23 1.27 1.89 1.89 0 0 0 2.13-.51l.71-.66a1.82 1.82 0 0 1-1.06-2.75z" fill="#d17428"/><path d="M54.3 29.2L41.49 11.68a6.11 6.11 0 0 0 1-10.4 6.08 6.08 0 0 0-7.45 0 6.14 6.14 0 0 0 1 10.38L23.35 28.75a1.82 1.82 0 0 0 1.06 2.75 1.9 1.9 0 0 0 2.07-.5l5.41-5L30 46.67a.3.3 0 0 0 .29.32h16.46a.3.3 0 0 0 .29-.32l-1.41-20.72 6.25 5.34a1.44 1.44 0 0 0 1.8.37 1.56 1.56 0 0 0 .62-2.46z" fill="#ffd52a"/></svg>